<svg xmlns="http://www.w3.org/2000/svg" width="60" height="60" viewBox="0 0 60 60">
  <defs>
    <style>
      .cls-1 {
        fill: #26272d;
      }
    </style>
  </defs>
  <path id="anchor" class="cls-1" d="M29.971,60a1.245,1.245,0,0,1-1.242-1.248V12.566a1.242,1.242,0,1,1,2.485,0V58.751A1.245,1.245,0,0,1,29.971,60Zm0,0A24.162,24.162,0,0,1,5.895,35.807a1.242,1.242,0,1,1,2.485,0,21.592,21.592,0,1,0,43.184,0,1.242,1.242,0,1,1,2.484,0A24.162,24.162,0,0,1,29.971,60Zm0-47.521a6.241,6.241,0,1,1,6.211-6.239A6.232,6.232,0,0,1,29.971,12.478Zm0-9.986A3.745,3.745,0,1,0,33.7,6.239,3.741,3.741,0,0,0,29.971,2.492Zm10,11.258H19.983a1.407,1.407,0,0,1-1.469-1.184,1.245,1.245,0,0,1,1.242-1.248H39.633a1.245,1.245,0,0,1,1.242,1.248A0.948,0.948,0,0,1,39.967,13.75ZM58.545,43.684a1.238,1.238,0,0,1-1.009-.519l-4.564-6.372-6.03,5.332a1.236,1.236,0,0,1-1.753-.113A1.252,1.252,0,0,1,45.3,40.25l7.058-6.241a1.237,1.237,0,0,1,1.829.209l5.365,7.489a1.252,1.252,0,0,1-.283,1.742A1.234,1.234,0,0,1,58.545,43.684Zm-57.147,0a1.234,1.234,0,0,1-.724-0.235,1.252,1.252,0,0,1-.283-1.742l5.362-7.489a1.234,1.234,0,0,1,.868-0.511,1.213,1.213,0,0,1,.961.3l7.06,6.241a1.252,1.252,0,0,1,.112,1.761A1.239,1.239,0,0,1,13,42.125L6.969,36.793,2.407,43.165A1.238,1.238,0,0,1,1.4,43.684Z"/>
</svg>
