<svg xmlns="http://www.w3.org/2000/svg" width="61" height="60" viewBox="0 0 61 60">
  <defs>
    <style>
      .cls-1 {
        fill: #26272d;
      }
    </style>
  </defs>
  <path id="basket" class="cls-1" d="M51.59,46.25H26.52a1.25,1.25,0,0,1,0-2.5H50.65L57.484,20H19.164a1.25,1.25,0,0,1,0-2.5H59.142a1.25,1.25,0,0,1,1.2,1.6l-7.552,26.25A1.248,1.248,0,0,1,51.59,46.25ZM29.82,60a4.375,4.375,0,1,1,4.367-4.375A4.376,4.376,0,0,1,29.82,60Zm0-6.25a1.875,1.875,0,1,0,1.872,1.875A1.876,1.876,0,0,0,29.82,53.75ZM48.536,60A4.375,4.375,0,1,1,52.9,55.625,4.376,4.376,0,0,1,48.536,60Zm0-6.25a1.875,1.875,0,1,0,1.872,1.875A1.875,1.875,0,0,0,48.536,53.75Zm-22.017-7.5a1.248,1.248,0,0,1-1.2-.912L13.733,3.995a2.262,2.262,0,0,0-1.969-1.5H1.745a1.25,1.25,0,0,1,0-2.5H11.764a4.743,4.743,0,0,1,4.372,3.319L27.722,44.662A1.249,1.249,0,0,1,26.519,46.25Z"/>
</svg>
