<svg xmlns="http://www.w3.org/2000/svg" width="103" height="60" viewBox="0 0 103 60">
  <defs>
    <style>
      .cls-1 {
        fill: #26272d;
      }
    </style>
  </defs>
  <path id="Forma_1" data-name="Forma 1" class="cls-1" d="M81.935,17.881A20.712,20.712,0,0,0,74.4,19.3L66.782,3.019h6A2.362,2.362,0,0,1,75.13,5.385v0.23a2.361,2.361,0,0,1-2.351,2.366,1.509,1.509,0,0,0,0,3.018,5.373,5.373,0,0,0,5.348-5.384V5.385A5.373,5.373,0,0,0,72.779,0L64.438,0h0a1.471,1.471,0,0,0-.658.142,1.513,1.513,0,0,0-.717,2.008l3.075,6.57H38.851L36.3,3.019h1.683a1.509,1.509,0,0,0,0-3.018H29.677a1.509,1.509,0,0,0,0,3.018h3.339l2.962,6.631a1.48,1.48,0,0,0-.149.219l-5.5,9.977a20.681,20.681,0,0,0-8.816-1.964,21.059,21.059,0,0,0,0,42.117h0A21.08,21.08,0,0,0,32.946,21.314L37.5,13.056l9.331,20.889a7.173,7.173,0,1,0,9.222,1.369l14.056-18.1,1.579,3.374A20.888,20.888,0,1,0,81.935,17.881ZM39.433,38.94A18,18,0,0,1,21.511,56.981h0a18.041,18.041,0,0,1,0-36.082,17.729,17.729,0,0,1,7.355,1.6L22.183,34.612a4.3,4.3,0,0,0-.672-0.058A4.388,4.388,0,1,0,24.8,36.077L31.486,23.96A18.069,18.069,0,0,1,39.433,38.94Zm11.218,5.3a4.2,4.2,0,1,1,4.166-4.195A4.186,4.186,0,0,1,50.651,44.237ZM53.658,33.5a7.083,7.083,0,0,0-3.007-.669,7.168,7.168,0,0,0-1,.072L40.2,11.74h27.35l1.13,2.414ZM81.935,56.981a18.057,18.057,0,0,1-8.964-33.653L78.837,35.86a4.349,4.349,0,1,0,3.1-1.306c-0.13,0-.259.008-0.386,0.019L75.681,22.035A17.742,17.742,0,0,1,81.936,20.9,18.041,18.041,0,0,1,81.935,56.981ZM50.65,37.91a2.132,2.132,0,1,0,2.118,2.132A2.127,2.127,0,0,0,50.65,37.91Z"/>
</svg>
