<svg xmlns="http://www.w3.org/2000/svg" width="38" height="60" viewBox="0 0 38 60">
  <defs>
    <style>
      .cls-1 {
        fill: #26272d;
      }
    </style>
  </defs>
  <path id="chemestry" class="cls-1" d="M30.41,12.5a6.25,6.25,0,1,1,6.223-6.25A6.242,6.242,0,0,1,30.41,12.5Zm0-10a3.75,3.75,0,1,0,3.734,3.75A3.745,3.745,0,0,0,30.41,2.5ZM16.723,16.25a3.75,3.75,0,1,1,3.733-3.75A3.746,3.746,0,0,1,16.723,16.25Zm0-5a1.25,1.25,0,1,0,1.245,1.25A1.248,1.248,0,0,0,16.723,11.25ZM12.99,43.75a1.246,1.246,0,0,1-1.244-1.25V23.75H9.257a1.25,1.25,0,0,1,0-2.5H12.99a1.247,1.247,0,0,1,1.244,1.25v20A1.247,1.247,0,0,1,12.99,43.75Zm12.444,0a1.246,1.246,0,0,1-1.244-1.25v-20a1.246,1.246,0,0,1,1.244-1.25h3.733a1.25,1.25,0,0,1,0,2.5H26.678V42.5A1.246,1.246,0,0,1,25.434,43.75ZM36.633,60H1.79A1.251,1.251,0,0,1,.767,58.038l11.2-16.25a1.24,1.24,0,0,1,1.732-.316,1.254,1.254,0,0,1,.315,1.739L4.165,57.5H34.259L24.41,43.211a1.254,1.254,0,0,1,.315-1.739,1.241,1.241,0,0,1,1.732.316l11.2,16.25A1.251,1.251,0,0,1,36.633,60Z"/>
</svg>
