<svg xmlns="http://www.w3.org/2000/svg" width="38" height="60" viewBox="0 0 38 60">
  <defs>
    <style>
      .cls-1 {
        fill: #26272d;
      }
    </style>
  </defs>
  <path id="microphone" class="cls-1" d="M26.569,33.75A1.258,1.258,0,0,1,25.3,32.5V8.828a1.266,1.266,0,0,1,2.531,0V32.5A1.258,1.258,0,0,1,26.569,33.75Zm-15.187,0a1.258,1.258,0,0,1-1.265-1.25V8.828a1.266,1.266,0,0,1,2.531,0V32.5A1.258,1.258,0,0,1,11.381,33.75ZM18.975,50A18.89,18.89,0,0,1-.009,31.248,1.258,1.258,0,0,1,1.256,30a1.258,1.258,0,0,1,1.266,1.25,16.454,16.454,0,0,0,32.906,0,1.266,1.266,0,0,1,2.531,0A18.89,18.89,0,0,1,18.975,50Zm0-8.751A8.814,8.814,0,0,1,10.116,32.5a1.266,1.266,0,0,1,2.531,0,6.328,6.328,0,0,0,12.656,0,1.266,1.266,0,0,1,2.531,0A8.814,8.814,0,0,1,18.975,41.248ZM26.569,10A1.258,1.258,0,0,1,25.3,8.753a6.328,6.328,0,0,0-12.656,0,1.266,1.266,0,0,1-2.531,0,8.86,8.86,0,0,1,17.718,0A1.258,1.258,0,0,1,26.569,10Zm3.8,50H7.584a1.25,1.25,0,1,1,0-2.5H30.365A1.25,1.25,0,1,1,30.365,60Zm-11.39,0a1.258,1.258,0,0,1-1.266-1.25v-10a1.266,1.266,0,0,1,2.531,0v10A1.258,1.258,0,0,1,18.975,60ZM36.693,32.5a1.258,1.258,0,0,1-1.266-1.25v-7.5a1.266,1.266,0,0,1,2.531,0v7.5A1.258,1.258,0,0,1,36.693,32.5Zm-35.437,0A1.258,1.258,0,0,1-.009,31.25v-7.5A1.258,1.258,0,0,1,1.256,22.5a1.258,1.258,0,0,1,1.266,1.25v7.5A1.258,1.258,0,0,1,1.256,32.5Z"/>
</svg>
