<svg xmlns="http://www.w3.org/2000/svg" width="73" height="60" viewBox="0 0 73 60">
  <defs>
    <style>
      .cls-1 {
        fill: #26272d;
      }
    </style>
  </defs>
  <path id="photo" class="cls-1" d="M36.218,48.05a15,15,0,1,1,14.987-15A15.01,15.01,0,0,1,36.218,48.05Zm0-27a12,12,0,1,0,11.99,12A12.009,12.009,0,0,0,36.218,21.05ZM66.093,60H6.342A6.055,6.055,0,0,1,.248,54V15A6.055,6.055,0,0,1,6.342,9H17.306l4.082-8.171A1.5,1.5,0,0,1,22.729,0H49.706a1.5,1.5,0,0,1,1.341.829L55.129,9H66.093a6.055,6.055,0,0,1,6.094,6V54A6.055,6.055,0,0,1,66.093,60ZM6.342,12a3.053,3.053,0,0,0-3.1,3V54a3.053,3.053,0,0,0,3.1,3H66.093a3.053,3.053,0,0,0,3.1-3V15a3.053,3.053,0,0,0-3.1-3H54.2a1.5,1.5,0,0,1-1.341-.829L48.78,3H23.656l-4.082,8.171A1.5,1.5,0,0,1,18.233,12H6.342Z"/>
</svg>
