<svg xmlns="http://www.w3.org/2000/svg" width="60" height="60" viewBox="0 0 60 60">
  <defs>
    <style>
      .cls-1 {
        fill: #26272d;
      }
    </style>
  </defs>
  <path id="rocket" class="cls-1" d="M26.46,60a1.291,1.291,0,0,1-.225-0.021,1.234,1.234,0,0,1-.939-0.834l-3.674-11.22-9-9.165L1.6,35.017a1.243,1.243,0,0,1-.819-0.956,1.266,1.266,0,0,1,.426-1.194l7.529-6.331a1.217,1.217,0,0,1,.782-0.285h8.649C21.5,19.4,24.8,12.849,32.682,4.708,36.447,0.816,44.778,0,51.1,0c4.021,0,7.034.322,7.16,0.336a1.238,1.238,0,0,1,1.091,1.111c0.084,0.8,1.984,19.75-4.294,26.05-8,8.023-14.426,11.389-21.155,14.778v8.807a1.26,1.26,0,0,1-.282.8l-6.219,7.666A1.216,1.216,0,0,1,26.46,60ZM4.48,33.359l9.192,3.121a1.22,1.22,0,0,1,.48.3l9.411,9.582a1.247,1.247,0,0,1,.3.488l3.065,9.361,4.528-5.581V41.5a1.252,1.252,0,0,1,.683-1.121c6.8-3.419,13.217-6.65,21.2-14.661,4.247-4.261,4.144-17.18,3.671-22.985-1.194-.1-3.356-0.232-5.9-0.232-8.28,0-14.2,1.408-16.674,3.964-7.868,8.131-11.041,14.669-14.4,21.591a1.226,1.226,0,0,1-1.1.7H9.959ZM2.406,60c-0.175,0-.321,0-0.433,0A1.222,1.222,0,0,1,1.094,59.6a1.268,1.268,0,0,1-.331-0.919c0.043-.863.49-8.513,2.961-11.03,2.417-2.46,7.389-3.808,7.6-3.865a1.226,1.226,0,0,1,1.5.891,1.252,1.252,0,0,1-.875,1.526c-1.256.338-4.873,1.573-6.487,3.215-1.172,1.195-1.882,5.144-2.149,8.065,3.172-.088,7.237-0.627,8.346-1.755,1.568-1.6,2.424-5.582,2.621-6.982a1.228,1.228,0,1,1,2.431.353c-0.084.6-.888,5.924-3.316,8.4C11.126,59.806,4.554,60,2.406,60ZM41.272,26.25a7.5,7.5,0,1,1,7.365-7.5A7.442,7.442,0,0,1,41.272,26.25Zm0-12.5a5,5,0,1,0,4.91,5A4.961,4.961,0,0,0,41.272,13.75Z"/>
</svg>
